<?xml version="1.0" encoding="UTF-8"?>
<svg width="55px" height="49px" viewBox="0 0 55 49" version="1.1" xmlns="http://www.w3.org/2000/svg" xmlns:xlink="http://www.w3.org/1999/xlink">
    <!-- Generator: Sketch 61 (89581) - https://sketch.com -->
    <title>dragon-1@2x</title>
    <desc>Created with Sketch.</desc>
    <g id="Page-1" stroke="none" stroke-width="1" fill="none" fill-rule="evenodd">
        <g id="Artboard" transform="translate(-1122.000000, -442.000000)">
            <g id="dragon-1" transform="translate(1124.000000, 443.000000)">
                <circle id="Oval" fill="#374A6B" cx="29" cy="24" r="24"></circle>
                <g id="add" transform="translate(0.000000, 1.000000)" stroke="#F79A6B" stroke-linecap="round" stroke-linejoin="round" stroke-width="3">
                    <line x1="10.0152778" y1="0" x2="10.0152778" y2="20" id="Path"></line>
                    <line x1="20" y1="10.0152778" x2="0" y2="10.0152778" id="Path"></line>
                </g>
                <g id="noun_dragon_9369" transform="translate(31.500000, 26.500000) rotate(-39.000000) translate(-31.500000, -26.500000) translate(15.000000, 13.000000)" fill="#BED0E9" fill-rule="nonzero">
                    <path d="M30.209657,1.66895106 C30.4420966,1.43400723 30.6171117,1.14312449 30.8604888,0.919364384 C29.8167137,3.98114045 29.7106223,5.54971596 31.5331929,6.96641073 C31.7191452,7.13143236 31.9379105,7.25729682 32.1019842,7.44748892 C31.935177,7.55377541 31.7355501,7.58174506 31.5468672,7.54258831 C29.1586668,7.4614155 27.3464048,9.12128635 27.710255,11.458344 C27.6008721,11.3800271 27.5078978,11.2765398 27.4012484,11.1954271 C25.3524092,10.3163931 22.3784452,11.3401707 21.6887203,13.5476783 C21.6039496,13.7574522 21.437139,13.9140825 21.2840027,14.0735087 C21.242986,13.9252696 21.1992321,13.7742347 21.1226656,13.6427777 C20.7753729,13.0134571 20.3159639,12.4624563 19.8401501,11.9338267 C19.4873868,11.5925968 19.1346268,11.237383 18.6970962,11.0080313 C18.2158121,10.7758832 17.6470207,10.677988 17.1356537,10.8653872 C16.4541525,11.1350968 16.5246586,11.6179526 16.7719562,12.0205348 C17.0043925,12.4820351 17.0208007,13.0162563 17.1520619,13.5085216 C17.3708272,14.0147736 17.7782782,14.4063478 18.2212794,14.7056256 C18.5029399,14.9125998 18.7955415,15.0971998 19.099077,15.2650173 C19.3998827,15.4384302 19.6569313,15.6789691 19.9167166,15.9111171 C20.1710313,16.137673 20.3487799,16.4397433 20.485508,16.753004 C21.6306145,19.0399996 21.777408,20.7299262 20.0370366,22.4784018 C19.8046003,22.7161419 19.5366109,22.9063369 19.2768256,23.1049203 C19.4873868,23.423776 19.7745178,23.7230505 19.8237419,24.1202197 C20.0701676,28.372115 14.7255848,27.4696686 17.6688958,23.4992937 C17.8739896,23.2028151 18.1283048,22.9454937 18.3662117,22.679781 C18.1337717,22.344146 17.9997803,21.9050204 18.1310382,21.5022591 C18.2349537,21.653294 18.2568288,21.8434895 18.3060529,22.016902 C18.3744158,22.1847194 18.5002064,22.3217714 18.6396713,22.43365 C20.8521794,20.9513017 20.9058329,17.557081 18.1611174,16.680286 C17.5950627,16.5823907 17.0180672,16.5236556 16.4738876,16.322273 C16.5395166,16.5348427 16.6352248,16.7418169 16.7938313,16.8984473 C16.886806,16.9935433 16.8375852,17.1445816 16.7774231,17.2424735 C16.6680403,17.4690294 16.4520088,17.6004864 16.2824643,17.771103 C16.1265945,17.9473118 15.989866,18.1486943 15.9160333,18.3724511 C15.8722794,18.5178943 15.8722794,18.6745247 15.8257921,18.8199642 C15.7574264,18.9486253 15.6316358,19.0269422 15.5167827,19.1080549 C15.5249868,19.3737642 15.6179643,19.6310856 15.6152276,19.8967988 C15.4292786,19.8436553 15.2734084,19.7261817 15.1284729,19.6003202 C15.1339545,19.7541547 15.1558076,19.9107817 15.1448811,20.0674121 C14.9698696,19.9499418 14.8222035,19.7961073 14.6690672,19.6562595 C14.6143758,19.6003202 14.5350725,19.6450836 14.4694403,19.6422615 C14.3299786,19.4520694 14.2123917,19.2283126 14.2643496,18.9793825 C14.3081031,18.8395313 14.3819362,18.6829009 14.5268684,18.6297608 C14.6553929,18.5654307 14.8167333,18.5906016 14.9233823,18.4815217 C15.237859,18.1934315 15.5085819,17.8633916 15.7820386,17.5361441 C15.8777468,17.3990922 16.0226823,17.2676356 16.0062741,17.0802398 C15.9816619,16.6327229 15.7820386,16.2187745 15.5523325,15.8467753 C15.5304427,15.8467753 15.4867035,15.8467753 15.464828,15.8467753 C15.2788758,16.2187745 15.2269182,16.6914614 15.423808,17.0690527 C15.4867035,17.1697437 15.3718505,17.2676356 15.317159,17.3431533 C15.1038643,17.5641138 14.7866537,17.5892876 14.5405399,17.7543092 C14.3409162,17.8745787 14.1467631,18.0228178 14.023706,18.2269961 C13.9553435,18.3276872 13.9197937,18.4507529 13.8350199,18.5402569 C13.7256374,18.6325567 13.5725011,18.6353529 13.4521807,18.7108702 C13.3756109,18.9430215 13.4029566,19.1975438 13.3154525,19.426896 C13.2908403,19.426896 13.2443529,19.4295678 13.2197411,19.4295678 C13.1130917,19.2953154 13.0228509,19.1470759 12.9298762,18.9988369 C12.8861227,19.1442768 12.8669811,19.2953154 12.806819,19.4351633 C12.6427452,19.3232847 12.6017284,19.0967287 12.5032835,18.9289113 C12.4759488,18.8477986 12.3856966,18.8477986 12.3200648,18.8226281 C12.2024778,18.5429291 12.1997443,18.1429636 12.4841419,17.9667549 C12.6564199,17.793342 12.9134684,17.9835374 13.1130917,17.8856418 C13.5971129,17.6758684 14.0701933,17.4297374 14.5049901,17.124868 C14.6471888,17.035364 14.6253137,16.8367806 14.6581264,16.6913374 C14.6800162,16.3668896 14.7128178,16.0312513 14.6007015,15.7207897 C14.4448317,15.3180251 14.2178623,14.9404338 14.1467631,14.5096995 C14.0948052,14.1880508 14.2123917,13.8859776 14.324508,13.5950911 C14.3409162,13.3573514 14.3381937,13.1140129 14.3491203,12.8734736 C14.3108386,12.5182603 14.3792141,12.1490603 14.245208,11.8106258 C14.1194174,11.4749908 13.9936268,11.1225733 13.7748615,10.8372823 C13.605317,10.6219134 13.3017778,10.6722606 13.0884799,10.7869351 C12.1915403,11.2372478 11.4094505,11.9616611 10.9609823,12.8846607 C10.7504178,13.2762383 10.7367468,13.7489256 10.5097774,14.1321119 C9.99463985,12.4716737 7.61213985,11.5124919 6.14539414,12.0119912 C6.11805944,12.1238694 6.09070271,12.235748 6.04694883,12.3420344 C5.33006026,10.6383403 3.30632585,8.52238931 0.889540955,10.0401267 C1.50291977,8.05073731 1.63062038,6.52137492 0.260587893,4.57484994 C0.132063404,4.32591937 0.162142587,4.03503662 0.10198422,3.76652767 C0.112910751,3.76092097 0.134796465,3.74413843 0.145734832,3.7385693 C0.432865853,4.04343875 0.70085524,4.37627784 1.05361524,4.60563004 C2.60519398,5.39449375 6.23524924,7.26194583 8.89364393,5.48667373 C9.06592189,5.44751864 9.2491374,5.48667373 9.40227373,5.57058225 C9.0353121,5.91084491 9.29691904,6.34323453 9.44602761,6.73691743 C9.86304598,7.54952843 10.2514656,8.2373554 10.9172292,8.72556408 C12.449615,8.84552083 14.1088966,8.40846216 15.5255141,8.85900823 C16.1327994,7.81747379 16.6919656,6.88199581 16.7336696,5.68526002 C16.6324909,5.70204256 16.5531876,5.76357353 16.4766211,5.83069993 C16.3727056,5.92859516 16.2250399,5.90342135 16.0937786,5.90342135 C16.1156684,5.79713861 16.1375325,5.69085211 16.1566741,5.58456895 C15.894155,5.42513942 15.7355517,5.12586498 15.4429501,5.01119055 C15.3882586,4.98323218 15.4019333,4.90770031 15.3882586,4.85735603 C15.1558223,4.79582172 14.920646,4.7594608 14.6854725,4.73149157 C14.7374301,4.5217211 14.9124452,4.36788657 15.1011276,4.28956972 C15.2405929,4.29517643 15.3663835,4.3790741 15.5031117,4.39865248 C15.7382852,4.53570446 15.9707248,4.28117887 16.2058982,4.40704375 C16.5723292,4.54129989 17.001659,4.54969116 17.3352774,4.32873024 C17.3653713,4.36788532 17.6507464,4.28427696 17.6808288,4.32342411 C17.6097296,4.40453346 17.2723819,4.59722624 17.1958154,4.67274392 C17.1984276,4.68391975 17.201297,4.711899 17.201297,4.72588696 C17.4774905,4.76224913 18.0765105,4.69474324 18.2734003,4.93249338 C18.0983888,4.97724515 17.6525019,5.01677012 17.4774905,5.04753561 C17.6716435,5.43351816 18.2974419,6.1017797 18.2290758,6.54649738 C18.1907941,6.54089068 17.6880517,6.30057849 17.6525019,6.29498681 C17.6060145,6.63062175 17.7507362,7.19539304 17.7233905,7.53382757 C17.6823705,7.53382757 17.4063909,7.29909578 17.3653709,7.29909578 C17.3544443,7.5704039 17.2095011,7.79975568 17.1192599,8.04588708 C17.061835,8.30600434 17.0426933,8.57451663 17.0044068,8.83743015 C18.1786174,8.75834264 19.7444003,9.02451956 20.750775,8.71995654 C21.2457337,8.20531661 21.5902896,7.5704039 21.9539905,6.95786541 C22.2360337,6.30860488 22.7900252,5.76774954 22.3094839,5.22094851 C22.4516827,5.20695053 22.596615,5.18179342 22.7360766,5.22655521 C25.7969452,5.22263093 28.1719966,4.32479218 30.2096713,1.66880912 M19.4108345,24.0949073 C19.3506725,23.8096162 19.1893325,23.5690769 18.9979129,23.3593035 C14.7140288,26.5335682 19.9860174,27.3312573 19.4108345,24.0949073 Z" id="Shape"></path>
                </g>
            </g>
        </g>
    </g>
</svg>